HIERARCHY
ROOT simHips
{
  OFFSET 3.83016 105.439 30.471
  CHANNELS 6 Xposition Yposition Zposition Zrotation Xrotation Yrotation
  JOINT simSpine
  {
    OFFSET -0.000355721 21.3001 -0.016921
    CHANNELS 3 Zrotation Xrotation Yrotation
    JOINT simLeftArm
    {
      OFFSET 13.5181 21.3012 0
      CHANNELS 3 Zrotation Xrotation Yrotation
      JOINT simLeftForeArm
      {
        OFFSET 24.5783 0 0
        CHANNELS 3 Zrotation Xrotation Yrotation
        JOINT simLeftHand
        {
          OFFSET 24.5783 0 0
          CHANNELS 3 Zrotation Xrotation Yrotation
          End Site
          {
            OFFSET 7.32568 1.52588e-005 0.0169305
          }
        }
      }
    }
    JOINT simHead
    {
      OFFSET 0 27.4458 -0.00489235
      CHANNELS 3 Zrotation Xrotation Yrotation
      End Site
      {
        OFFSET 0 0 0
      }
    }
    JOINT simRightArm
    {
      OFFSET -13.5174 21.3012 0
      CHANNELS 3 Zrotation Xrotation Yrotation
      JOINT simRightForeArm
      {
        OFFSET -24.5783 0 0
        CHANNELS 3 Zrotation Xrotation Yrotation
        JOINT simRightHand
        {
          OFFSET -24.5783 0 0
          CHANNELS 3 Zrotation Xrotation Yrotation
          End Site
          {
            OFFSET -7.32568 1.52588e-005 0.0169305
          }
        }
      }
    }
  }
  JOINT simRightUpLeg
  {
    OFFSET -8.44614 -9.41038 0.835684
    CHANNELS 3 Zrotation Xrotation Yrotation
    JOINT simRightLeg
    {
      OFFSET 0 -40.9639 0
      CHANNELS 3 Zrotation Xrotation Yrotation
      JOINT simRightFoot
      {
        OFFSET 0 -40.9639 0
        CHANNELS 3 Zrotation Xrotation Yrotation
        End Site
        {
          OFFSET 0.50614 -9.67405 14.6709
        }
      }
    }
  }
  JOINT simLeftUpLeg
  {
    OFFSET 8.44614 -9.41038 0.835684
    CHANNELS 3 Zrotation Xrotation Yrotation
    JOINT simLeftLeg
    {
      OFFSET 0 -40.9639 0
      CHANNELS 3 Zrotation Xrotation Yrotation
      JOINT simLeftFoot
      {
        OFFSET 0 -40.9639 0
        CHANNELS 3 Zrotation Xrotation Yrotation
        End Site
        {
          OFFSET -0.50614 -9.67405 14.6709
        }
      }
    }
  }
}
MOTION
Frames:	14
Frame Time:	0.0333333
-0.40999 104.437 36.7527 -1.01489 0.45197 7.62334 -4.10243 4.40287 -0.260812 -63.8119 8.83285 4.53372 17.96 -10.6437 -33.9305 0.127297 10.1207 -1.4375 -1.73218 -32.3646 -42.757 14.8706 -52.3062 37.4646 -19.4861 -12.3789 37.4467 -0.0173513 3.75791 0.528907 -3.91102 -4.62068 22.3254 -0.0646158 22.4704 0.234249 -6.56086 -16.184 -16.1406 10.7127 6.93728 -15.3159 0.00948623 6.96244 -0.23503 9.02342 -13.1763 25.0406 
-0.244042 104.521 36.8325 -0.873896 0.645912 7.8365 -4.41383 4.4272 -0.638077 -64.3539 6.58222 5.15248 17.6375 -10.3021 -33.2118 0.146862 10.8597 -1.54496 -1.78392 -33.276 -42.7949 11.4528 -54.1016 36.2456 -19.6827 -12.6178 37.9149 -0.0579939 6.8557 0.968176 -4.28888 -4.44348 22.004 -0.0610434 21.9725 0.228256 -6.51196 -15.9638 -16.2239 10.5281 7.05673 -15.5686 0.00755603 6.30361 -0.237211 8.9762 -12.8424 25.3408 
-0.125003 104.537 36.8674 -1.24629 0.762247 7.59908 -3.88088 4.43022 -0.557855 -64.9081 5.28065 5.45295 17.2762 -9.92911 -32.4159 0.153326 11.0924 -1.57891 -2.44884 -34.1403 -42.9746 7.56697 -55.3442 34.4695 -19.8212 -12.7885 38.2476 -0.105755 9.23494 1.30936 -4.09668 -4.28703 22.1147 -0.0556059 21.2338 0.219396 -6.41373 -15.6546 -16.2363 10.8027 6.9119 -15.3563 0.00880902 6.44608 -0.239873 9.05265 -13.0013 25.3535 
-0.0654935 104.544 36.868 -1.33154 0.859486 7.19131 -3.76282 4.46336 -0.480892 -65.503 4.25825 5.52409 17.1454 -9.79646 -32.13 0.168194 11.3281 -1.61334 -2.40752 -34.8032 -42.8175 3.58735 -55.7277 32.0513 -19.7927 -12.7534 38.1793 -0.143369 10.7317 1.52631 -4.15181 -4.22107 22.4796 -0.0520906 20.6781 0.21376 -6.32284 -15.4642 -16.1583 10.7466 6.74853 -14.9854 0.0105473 6.74956 -0.242455 9.05108 -12.9538 25.4297 
0.0799715 104.543 36.8105 -1.40858 1.03785 6.51847 -3.36276 4.35914 -0.321906 -66.2549 3.96339 5.6085 17.0836 -9.73422 -31.9953 0.158841 11.0811 -1.57726 -2.24942 -35.0955 -42.6743 0.67761 -55.4471 30.6772 -19.5034 -12.3996 37.4874 -0.170688 11.6931 1.6668 -4.32937 -4.36885 22.8082 -0.0495306 20.1978 0.209996 -6.12683 -15.3022 -15.6709 10.5493 6.56103 -14.3282 0.0125405 7.1747 -0.24469 9.20562 -13.3142 25.3969 
0.0987461 104.547 36.6752 -1.5096 1.1444 5.60482 -2.99242 4.47213 -0.237423 -66.9401 3.96119 5.50618 17.1312 -9.78218 -32.0991 0.147654 10.8885 -1.54915 -1.58176 -35.746 -41.9224 0.640186 -55.6867 31.4341 -19.0635 -11.8776 36.4521 -0.191043 12.3578 1.7645 -4.15525 -4.9188 23.3476 -0.0508944 20.4504 0.210336 -6.03754 -15.2087 -15.3663 10.5371 6.43735 -13.4598 0.0138448 7.52169 -0.246212 9.33257 -13.6635 25.294 
0.102473 104.528 36.4771 -1.25005 1.17776 4.49805 -2.99744 4.82961 -0.142423 -67.319 4.46396 5.11128 17.1611 -9.81233 -32.1643 0.16158 11.3822 -1.62126 -0.91216 -36.6136 -41.2942 2.95152 -55.9614 33.5774 -18.7711 -11.5405 35.7739 -0.170015 11.6705 1.66348 -4.25854 -5.83407 23.5724 -0.0575395 21.3466 0.219226 -5.83139 -15.2186 -14.5284 10.1144 6.37911 -12.4257 0.0146884 7.88769 -0.246148 9.30662 -13.6125 25.3078 
0.122494 104.504 36.2806 -1.0552 1.01846 3.25421 -2.65387 5.16445 -0.0041166 -67.6967 5.70708 4.91765 17.2674 -9.9202 -32.3968 0.134032 10.3813 -1.47534 -0.447552 -37.068 -40.8165 6.35743 -55.8336 36.3412 -18.6588 -11.4129 35.5153 -0.11294 9.53996 1.35341 -4.28816 -6.34798 24.7318 -0.0651385 22.0801 0.231715 -5.86028 -15.804 -14.0304 9.66592 6.24511 -11.0375 0.0173605 8.84409 -0.250476 9.33916 -13.8177 25.1514 
0.0878756 104.476 36.0712 -0.767781 0.824394 1.79819 -2.48095 5.59192 0.217522 -67.9386 5.9696 4.60894 17.2803 -9.93328 -32.425 0.161723 11.3872 -1.62199 0.614841 -37.5053 -39.62 11.6947 -55.5429 40.1959 -18.7458 -11.5115 35.7154 -0.0580461 6.85877 0.968614 -4.32766 -6.9882 25.5241 -0.0717574 22.8757 0.240428 -5.69738 -15.8545 -13.3619 9.06384 5.87763 -9.49291 0.0223303 10.3139 -0.260178 9.50798 -14.2602 25.0956 
0.0411691 104.382 35.8444 -0.646421 0.530382 0.46682 -2.05309 6.1497 0.413626 -68.0363 6.49343 3.97897 17.3365 -9.99068 -32.5482 0.180186 12.0082 -1.71305 1.02586 -38.1419 -39.1405 16.6144 -54.305 43.023 -19.1334 -11.9593 36.6154 -0.0148053 3.47174 0.488525 -4.18713 -7.57632 26.0878 -0.0791435 23.7066 0.250278 -5.49211 -15.9153 -12.5184 8.74966 5.59416 -7.91341 0.02711 11.7892 -0.2681 9.55114 -14.5981 24.813 
-0.106809 104.251 35.5772 -0.580281 0.296078 -0.700309 -1.64705 6.54172 0.568466 -67.9237 7.00619 3.27034 17.3767 -10.032 -32.6366 0.18952 12.3094 -1.75737 2.0334 -38.4352 -38.0423 20.7601 -52.041 44.3438 -19.7967 -12.7582 38.1885 -4.91722e-005 -0.200232 -0.0281409 -3.83934 -8.25663 26.7935 -0.0881918 24.7063 0.261948 -5.39215 -16.0708 -11.9844 8.60149 5.09922 -6.51009 0.0339402 13.3468 -0.277501 9.61321 -14.9998 24.5069 
-0.199221 104.165 35.3838 -0.200247 0.0531773 -1.6728 -1.57485 6.77662 0.484231 -67.5404 8.0574 2.84036 17.5755 -10.2375 -33.0747 0.179644 12.0716 -1.72236 2.9234 -38.3947 -37.2288 24.9479 -49.0647 45.0227 -20.6332 -13.8294 40.2399 -0.0220289 -4.23322 -0.596036 -4.02469 -8.72881 27.0136 -0.0956618 25.4307 0.271996 -5.18754 -16.1866 -11.1416 8.06946 4.65154 -5.3298 0.0437772 14.9708 -0.291592 9.79942 -15.6701 24.224 
-0.355655 104 35.2757 -0.666868 -0.236827 -2.74822 -0.419247 7.042 0.402154 -67.2472 9.01122 2.58021 17.7863 -10.4587 -33.5425 0.179775 11.9947 -1.71107 3.87781 -38.1614 -36.0515 29.2726 -45.8303 45.7781 -21.4066 -14.8908 42.2145 -0.0734995 -7.71174 -1.09047 -3.31467 -8.888 27.3013 -0.098532 25.7391 0.275282 -4.96698 -16.0382 -10.4316 8.49107 4.4285 -4.4932 0.054995 16.5622 -0.307784 10.154 -16.446 24.2907 
-0.58324 103.854 35.0417 -0.366614 -0.126294 -3.26931 -0.465251 7.02855 0.0010126 -66.3025 9.6141 1.93945 17.8687 -10.5462 -33.7263 0.188462 12.2757 -1.7524 4.98894 -38.1109 -35.2162 33.5027 -42.5369 45.6227 -22.1687 -16.0128 44.2478 -0.170271 -11.6791 -1.66474 -3.34117 -9.70081 27.4444 -0.108567 26.5952 0.289244 -4.85052 -16.3918 -9.72963 8.28755 3.81933 -4.03869 0.0579628 17.3266 -0.307783 10.1037 -16.2385 24.3809 
